<?xml version="1.0" standalone="no"?>
<!DOCTYPE svg PUBLIC "-//W3C//DTD SVG 20010904//EN"
 "http://www.w3.org/TR/2001/REC-SVG-20010904/DTD/svg10.dtd">
<svg version="1.0" xmlns="http://www.w3.org/2000/svg"
 width="512.000000pt" height="512.000000pt" viewBox="0 0 512.000000 512.000000"
 preserveAspectRatio="xMidYMid meet">

<g transform="translate(0.000000,512.000000) scale(0.100000,-0.100000)"
fill="#000000" stroke="none">
<path d="M1766 5110 c-416 -66 -754 -363 -870 -764 -37 -127 -51 -275 -36
-398 52 -452 353 -804 790 -926 86 -24 111 -27 270 -27 198 0 273 15 430 84
484 212 741 761 594 1267 -105 363 -396 646 -759 740 -112 28 -315 40 -419 24z
m363 -231 c311 -78 563 -342 626 -658 23 -111 16 -294 -14 -399 -82 -282 -301
-502 -586 -588 -80 -24 -106 -27 -235 -27 -129 0 -155 3 -235 27 -232 70 -419
226 -525 437 -58 115 -81 204 -87 345 -11 248 64 449 236 627 213 222 522 311
820 236z"/>
<path d="M3370 2754 c-89 -38 -117 -95 -136 -268 -7 -72 -14 -141 -14 -153 0
-17 -14 -30 -57 -52 -32 -16 -74 -40 -94 -54 l-36 -24 -142 63 c-159 72 -218
81 -289 45 -55 -28 -71 -50 -181 -240 -107 -186 -121 -227 -101 -299 15 -58
54 -99 184 -193 l111 -81 1 -111 0 -112 -125 -90 c-134 -96 -165 -133 -177
-212 -9 -59 6 -96 119 -291 103 -179 129 -209 201 -232 61 -19 120 -6 265 60
l135 61 25 -19 c14 -10 56 -35 92 -55 l66 -37 16 -157 c20 -191 38 -229 127
-276 l55 -28 226 3 226 3 41 28 c76 50 92 86 109 249 19 188 18 183 54 198 17
7 58 31 91 52 l60 39 136 -62 c84 -39 155 -64 185 -67 60 -6 123 17 164 61 30
32 177 280 214 360 35 77 16 180 -42 234 -13 12 -73 57 -132 100 l-109 78 -1
111 -2 111 119 84 c126 89 156 121 176 183 24 75 9 121 -96 303 -104 182 -129
215 -186 244 -69 35 -126 27 -284 -44 l-141 -63 -94 57 -94 56 -13 134 c-16
167 -25 200 -64 245 -62 70 -80 74 -330 74 -176 -1 -230 -4 -258 -16z m433
-256 c35 -354 25 -329 151 -387 44 -21 109 -59 144 -85 92 -69 98 -68 259 4
76 34 152 68 170 76 l32 14 84 -148 84 -147 -66 -47 c-203 -146 -232 -170
-242 -195 -8 -20 -8 -53 0 -114 8 -62 8 -108 0 -168 -16 -118 -14 -122 161
-248 l147 -106 -84 -147 -85 -148 -164 74 c-90 41 -177 74 -192 74 -17 0 -53
-18 -93 -46 -35 -25 -106 -67 -157 -92 -63 -31 -98 -54 -106 -71 -8 -14 -21
-102 -31 -196 -9 -93 -19 -173 -22 -177 -2 -5 -78 -8 -168 -8 -163 0 -165 0
-169 23 -3 12 -12 94 -20 181 -11 105 -21 167 -31 183 -9 13 -50 39 -91 58
-41 19 -94 47 -117 63 -23 16 -60 41 -81 55 -21 15 -51 27 -66 27 -15 0 -98
-31 -184 -70 -85 -38 -160 -70 -165 -70 -12 0 -173 279 -166 289 2 5 66 53
141 106 74 54 141 107 148 119 9 15 12 73 11 216 -1 107 -5 202 -9 210 -3 8
-72 62 -151 120 -84 60 -143 110 -141 117 5 12 155 275 161 281 1 1 74 -30
161 -70 101 -46 172 -72 194 -72 26 0 56 15 119 58 46 31 114 71 152 88 37 17
75 41 83 53 10 16 21 82 32 192 9 92 17 174 20 181 2 9 46 12 172 12 l169 0 6
-62z"/>
<path d="M3525 1910 c-64 -13 -138 -44 -199 -84 -161 -108 -256 -322 -226
-510 21 -129 64 -215 155 -307 102 -103 228 -153 380 -152 224 2 415 138 492
351 107 294 -73 625 -379 697 -67 16 -158 18 -223 5z m242 -240 c237 -116 236
-453 -3 -571 -41 -20 -64 -24 -139 -24 -75 0 -98 4 -135 24 -109 56 -171 150
-178 271 -5 96 21 170 82 234 104 107 239 131 373 66z"/>
<path d="M793 2545 c-201 -36 -365 -124 -513 -274 -129 -130 -211 -275 -257
-457 -16 -62 -18 -125 -18 -591 l0 -523 28 -27 27 -28 899 0 899 0 26 24 c35
33 44 85 21 127 -10 18 -25 36 -34 41 -9 4 -385 10 -836 13 l-820 5 0 425 c0
367 3 434 18 492 57 227 212 414 423 509 140 64 120 62 910 68 687 6 723 7
743 25 33 30 45 78 27 119 -29 70 3 67 -773 66 -526 -1 -716 -4 -770 -14z"/>
</g>
</svg>
