<?xml version="1.0" standalone="no"?>
<!DOCTYPE svg PUBLIC "-//W3C//DTD SVG 20010904//EN"
 "http://www.w3.org/TR/2001/REC-SVG-20010904/DTD/svg10.dtd">
<svg version="1.0" xmlns="http://www.w3.org/2000/svg"
 width="512.000000pt" height="512.000000pt" viewBox="0 0 512.000000 512.000000"
 preserveAspectRatio="xMidYMid meet">

<g transform="translate(0.000000,512.000000) scale(0.100000,-0.100000)"
fill="#000000" stroke="none">
<path d="M2505 5095 l-25 -24 0 -271 0 -271 25 -24 c15 -16 36 -25 55 -25 19
0 40 9 55 25 l25 24 0 271 0 271 -25 24 c-15 16 -36 25 -55 25 -19 0 -40 -9
-55 -25z"/>
<path d="M1689 4830 c-9 -5 -22 -23 -29 -39 -11 -27 -5 -46 80 -253 51 -122
98 -235 106 -250 16 -31 42 -48 74 -48 25 0 80 51 80 74 0 27 -192 480 -213
504 -22 23 -69 29 -98 12z"/>
<path d="M3333 4818 c-22 -24 -213 -477 -213 -504 0 -23 55 -74 80 -74 32 0
58 17 74 48 8 15 55 128 106 250 85 207 91 226 79 253 -21 53 -89 67 -126 27z"/>
<path d="M645 4615 c-16 -16 -25 -35 -25 -57 0 -29 21 -54 193 -225 171 -172
196 -193 225 -193 44 0 82 38 82 82 0 29 -21 54 -193 225 -171 172 -196 193
-225 193 -22 0 -41 -9 -57 -25z"/>
<path d="M4193 4447 c-172 -171 -193 -196 -193 -225 0 -44 38 -82 82 -82 28 0
53 21 220 188 161 159 189 192 194 224 5 30 2 41 -19 62 -17 17 -37 26 -59 26
-29 0 -54 -21 -225 -193z"/>
<path d="M185 3815 c-30 -29 -33 -74 -7 -103 21 -26 470 -212 510 -212 52 0
87 60 66 115 -4 8 -20 23 -37 32 -72 37 -463 193 -485 193 -12 0 -34 -11 -47
-25z"/>
<path d="M1520 3827 c-19 -6 -58 -34 -85 -62 -71 -70 -91 -146 -63 -237 14
-48 76 -121 118 -138 28 -11 30 -16 30 -61 l0 -49 -376 0 c-267 0 -389 -4
-418 -12 -26 -8 -60 -31 -92 -63 -65 -65 -79 -112 -71 -238 16 -239 98 -449
244 -622 225 -267 628 -453 1070 -494 91 -8 92 -9 144 -55 60 -54 161 -115
232 -142 l49 -17 -7 -64 c-8 -80 -47 -251 -81 -365 l-27 -88 -69 0 c-60 0 -72
-3 -93 -25 l-25 -24 0 -301 c0 -247 -2 -300 -14 -300 -32 0 -156 -73 -196
-116 -57 -62 -99 -155 -107 -237 -5 -61 -4 -67 20 -91 l26 -26 831 0 831 0 26
26 c24 24 25 30 20 91 -8 82 -50 175 -107 237 -40 43 -164 116 -196 116 -12 0
-14 53 -14 300 l0 301 -25 24 c-21 22 -33 25 -93 25 l-69 0 -27 88 c-34 114
-74 291 -82 368 l-6 60 48 18 c69 26 170 86 232 140 59 51 63 52 172 61 116 9
303 50 435 95 519 179 820 539 852 1017 8 126 -6 173 -71 238 -32 32 -66 55
-92 63 -29 8 -151 12 -418 12 l-376 0 0 49 c0 45 2 50 30 61 42 17 104 90 118
138 26 86 8 162 -55 232 -77 85 -2 80 -1137 79 -699 -1 -1012 -4 -1036 -12z
m2055 -172 c16 -15 25 -36 25 -55 0 -19 -9 -40 -25 -55 l-24 -25 -991 0 -991
0 -24 25 c-16 15 -25 36 -25 55 0 19 9 40 25 55 l24 25 991 0 991 0 24 -25z
m-139 -450 c-19 -460 -120 -857 -281 -1107 -169 -262 -446 -382 -743 -322
-223 45 -409 212 -532 477 -110 240 -181 583 -197 955 l-6 152 883 0 883 0 -7
-155z m-1906 -134 c0 -27 3 -63 6 -80 l7 -31 -295 0 c-284 0 -296 -1 -322 -21
-31 -24 -34 -59 -10 -140 82 -277 342 -486 728 -584 79 -20 90 -26 101 -51 7
-16 27 -53 44 -83 18 -29 29 -56 26 -59 -9 -9 -219 37 -317 69 -355 116 -617
341 -718 618 -34 92 -60 227 -60 308 0 44 5 58 25 78 l24 25 381 0 380 0 0
-49z m2845 24 c20 -20 25 -34 25 -78 0 -81 -26 -216 -60 -308 -101 -277 -362
-502 -718 -618 -98 -32 -308 -78 -317 -69 -3 3 8 30 26 59 17 30 37 67 44 83
11 25 22 31 101 51 386 98 646 307 728 584 24 81 21 116 -10 140 -26 20 -38
21 -322 21 l-294 0 6 31 c3 17 6 53 6 80 l0 49 380 0 381 0 24 -25z m-2810
-332 c13 -76 56 -260 74 -321 l20 -63 -32 6 c-54 11 -196 72 -269 115 -88 52
-184 143 -225 211 -58 98 -77 89 190 89 l236 0 6 -37z m2465 29 c0 -18 -74
-130 -113 -170 -53 -56 -145 -121 -224 -161 -59 -29 -200 -81 -221 -81 -6 0
-2 28 9 63 18 60 61 244 74 320 l6 37 234 0 c129 0 235 -4 235 -8z m-1365
-1239 c12 -89 46 -248 71 -333 13 -46 24 -88 24 -92 0 -4 -90 -8 -200 -8 -110
0 -200 2 -200 3 0 2 17 73 39 158 21 85 44 191 51 237 l12 82 98 0 98 0 7 -47z
m295 -833 l0 -240 -400 0 -400 0 0 240 0 240 400 0 400 0 0 -240z m154 -412
c45 -13 146 -105 146 -132 0 -14 -71 -16 -700 -16 -629 0 -700 2 -700 16 0 24
101 119 140 131 52 16 1059 17 1114 1z"/>
<path d="M2527 3188 c-22 -8 -40 -35 -92 -139 -36 -71 -69 -129 -75 -129 -14
0 -221 -30 -247 -35 -33 -8 -63 -45 -63 -78 0 -25 19 -50 104 -136 l104 -106
-23 -135 c-14 -84 -20 -143 -14 -156 10 -27 47 -54 72 -54 11 0 75 30 143 66
l124 65 123 -65 c68 -36 133 -66 143 -66 26 0 63 27 73 54 6 13 0 72 -14 156
l-23 135 104 106 c84 86 104 111 104 135 -1 62 -29 77 -193 99 l-128 18 -64
127 c-56 111 -68 129 -96 139 -18 6 -32 11 -33 10 -1 0 -14 -5 -29 -11z m71
-323 c36 -74 57 -90 127 -99 93 -13 92 -11 29 -78 l-57 -59 6 -67 c4 -37 9
-77 13 -90 7 -23 5 -23 -64 12 -39 20 -82 36 -94 36 -13 0 -52 -16 -87 -35
-36 -19 -66 -33 -68 -31 -2 2 1 23 6 47 6 24 11 63 11 87 0 39 -6 49 -56 102
-61 65 -62 63 31 76 70 9 91 25 127 99 18 36 35 65 38 65 3 0 20 -29 38 -65z"/>
<path d="M2320 720 l0 -80 240 0 240 0 0 80 0 80 -240 0 -240 0 0 -80z"/>
<path d="M4620 3740 c-129 -55 -240 -107 -247 -116 -35 -48 3 -124 61 -124 39
0 487 187 509 212 39 47 1 129 -60 127 -15 0 -134 -45 -263 -99z"/>
<path d="M25 2615 c-16 -15 -25 -36 -25 -55 0 -19 9 -40 25 -55 24 -25 26 -25
215 -25 189 0 191 0 215 25 33 32 33 78 0 110 -24 25 -26 25 -215 25 -189 0
-191 0 -215 -25z"/>
<path d="M4665 2615 c-16 -15 -25 -36 -25 -55 0 -19 9 -40 25 -55 24 -25 26
-25 215 -25 189 0 191 0 215 25 16 15 25 36 25 55 0 19 -9 40 -25 55 -24 25
-26 25 -215 25 -189 0 -191 0 -215 -25z"/>
<path d="M752 1898 c-168 -70 -246 -107 -254 -121 -15 -30 -12 -76 7 -97 35
-39 56 -34 307 69 132 55 247 106 254 113 8 7 16 27 20 44 4 24 0 37 -18 57
-41 47 -56 44 -316 -65z"/>
<path d="M4083 1990 c-55 -22 -67 -104 -20 -135 12 -7 126 -57 254 -110 242
-100 263 -104 298 -65 19 21 22 67 7 97 -8 14 -85 51 -256 122 -134 55 -248
101 -253 100 -4 0 -18 -4 -30 -9z"/>
<path d="M1148 1262 c-167 -167 -188 -191 -188 -220 0 -22 9 -41 25 -57 16
-16 35 -25 57 -25 29 0 53 21 220 188 167 167 188 191 188 220 0 22 -9 41 -25
57 -16 16 -35 25 -57 25 -29 0 -53 -21 -220 -188z"/>
<path d="M3695 1425 c-16 -16 -25 -35 -25 -57 0 -29 21 -53 188 -220 167 -167
191 -188 220 -188 44 0 82 38 82 82 0 29 -21 53 -188 220 -167 167 -191 188
-220 188 -22 0 -41 -9 -57 -25z"/>
</g>
</svg>
