<?xml version="1.0" standalone="no"?>
<!DOCTYPE svg PUBLIC "-//W3C//DTD SVG 20010904//EN"
 "http://www.w3.org/TR/2001/REC-SVG-20010904/DTD/svg10.dtd">
<svg version="1.0" xmlns="http://www.w3.org/2000/svg"
 width="512.000000pt" height="512.000000pt" viewBox="0 0 512.000000 512.000000"
 preserveAspectRatio="xMidYMid meet">

<g transform="translate(0.000000,512.000000) scale(0.100000,-0.100000)"
fill="#000000" stroke="none">
<path d="M2450 4734 c-881 -55 -1621 -600 -1930 -1419 -89 -234 -132 -484
-132 -755 0 -353 67 -639 221 -955 320 -653 927 -1093 1656 -1200 133 -20 409
-23 550 -6 984 118 1757 877 1901 1867 19 130 21 419 5 549 -106 822 -637
1497 -1406 1785 -251 95 -609 150 -865 134z m308 -265 c384 -42 743 -194 1037
-441 544 -456 793 -1187 639 -1878 -94 -421 -315 -787 -639 -1058 -716 -600
-1754 -600 -2470 0 -545 456 -793 1184 -639 1877 39 172 77 280 160 446 183
368 464 656 824 843 336 176 725 251 1088 211z"/>
<path d="M1933 3646 c-133 -43 -235 -155 -263 -289 -7 -37 -10 -295 -8 -828
l3 -774 31 -65 c37 -79 79 -128 142 -168 72 -46 152 -66 242 -59 l75 5 773
386 c577 289 784 396 816 426 55 51 101 138 116 218 21 119 -26 259 -116 342
-32 30 -240 138 -819 427 l-776 388 -87 2 c-52 2 -104 -3 -129 -11z m904 -620
c557 -278 737 -373 750 -393 24 -36 23 -111 0 -146 -14 -21 -192 -115 -768
-402 -412 -206 -759 -375 -770 -375 -38 0 -89 29 -109 62 -20 32 -20 48 -20
786 0 652 2 757 15 782 24 46 86 72 140 60 17 -4 360 -172 762 -374z"/>
</g>
</svg>
